M48
;DRILL file {KiCad 4.0.7-e2-6376~61~ubuntu18.04.1} date Thu Nov  5 22:11:07 2020
;FORMAT={-:-/ absolute / inch / decimal}
FMAT,2
INCH,TZ
T1C0.024
T2C0.031
T3C0.035
T4C0.039
T5C0.047
T6C0.051
T7C0.079
%
G90
G05
M72
T1
X4.4606Y-1.4961
X4.4606Y-1.5961
X4.4606Y-2.2756
X4.4606Y-2.3756
X4.4646Y-3.0591
X4.4646Y-3.1591
X4.4646Y-3.8406
X4.4646Y-3.9406
X4.4646Y-4.626
X4.4646Y-4.726
X4.5106Y-1.5461
X4.5106Y-2.3256
X4.5146Y-3.1091
X4.5146Y-3.8906
X4.5146Y-4.676
X4.9144Y-5.5118
X4.9144Y-5.6118
X4.9644Y-5.5618
T2
X3.2039Y-5.5197
X3.2039Y-5.6772
X3.2047Y-5.8346
X3.4567Y-1.6732
X3.4567Y-1.9732
X3.4567Y-2.4567
X3.4567Y-2.7567
X3.4567Y-3.2402
X3.4567Y-3.5402
X3.4606Y-4.8071
X3.4606Y-5.1071
X3.4626Y-4.0236
X3.4626Y-4.3236
X3.5039Y-5.5197
X3.5039Y-5.6772
X3.5047Y-5.8346
X3.6142Y-1.6732
X3.6142Y-2.4567
X3.6142Y-3.2402
X3.6339Y-4.0236
X3.6339Y-4.8071
X3.7126Y-1.6732
X3.7126Y-2.4567
X3.7126Y-3.2402
X3.7126Y-4.0236
X3.7126Y-4.8071
X3.8356Y-5.5197
X3.8356Y-5.6181
X3.8496Y-1.4921
X3.8496Y-1.6732
X3.8496Y-2.2756
X3.8496Y-2.4567
X3.8504Y-1.8543
X3.8504Y-2.6378
X3.8504Y-4.9882
X3.8516Y-4.626
X3.8516Y-4.8071
X3.8535Y-3.0591
X3.8535Y-3.2402
X3.8535Y-3.8425
X3.8535Y-4.0236
X3.8543Y-3.4213
X3.8543Y-4.2047
X3.9695Y-5.5197
X3.9695Y-5.6181
X4.0307Y-5.7638
X4.1019Y-5.5782
X4.1496Y-1.4921
X4.1496Y-1.6732
X4.1496Y-2.2756
X4.1496Y-2.4567
X4.1504Y-1.8543
X4.1504Y-2.6378
X4.1504Y-4.9882
X4.1516Y-4.626
X4.1516Y-4.8071
X4.1535Y-3.0591
X4.1535Y-3.2402
X4.1535Y-3.8425
X4.1535Y-4.0236
X4.1543Y-3.4213
X4.1543Y-4.2047
X4.2004Y-5.5782
X4.2835Y-1.4291
X4.2835Y-1.5276
X4.2835Y-1.7165
X4.2835Y-2.0165
X4.2835Y-2.2087
X4.2835Y-2.3071
X4.2835Y-2.5
X4.2835Y-2.8
X4.2835Y-2.9921
X4.2835Y-3.0906
X4.2835Y-3.7756
X4.2835Y-3.874
X4.2835Y-4.5591
X4.2835Y-4.6575
X4.2874Y-3.2835
X4.2874Y-3.5835
X4.2874Y-4.0669
X4.2874Y-4.3669
X4.2874Y-4.8504
X4.2874Y-5.1504
X4.3307Y-5.7638
X4.3309Y-5.5787
X4.4409Y-1.7165
X4.4409Y-2.0165
X4.4409Y-2.5
X4.4409Y-2.8
X4.4449Y-3.2835
X4.4449Y-3.5835
X4.4449Y-4.0669
X4.4449Y-4.3669
X4.4449Y-4.8504
X4.4449Y-5.1504
X4.6132Y-5.689
X4.6132Y-5.7874
X4.6309Y-5.5787
X4.6449Y-1.4803
X4.6449Y-2.2598
X4.6449Y-3.0433
X4.6457Y-1.6378
X4.6457Y-1.7992
X4.6457Y-2.4173
X4.6457Y-2.5748
X4.6457Y-3.2008
X4.6457Y-3.3583
X4.6469Y-3.7894
X4.6488Y-4.5748
X4.7569Y-5.2795
X4.7569Y-5.5795
X4.7569Y-5.6732
X4.7569Y-5.9732
X4.875Y-5.3858
X4.875Y-5.7402
X4.9449Y-1.4803
X4.9449Y-2.2598
X4.9449Y-3.0433
X4.9457Y-1.6378
X4.9457Y-1.7992
X4.9457Y-2.4173
X4.9457Y-2.5748
X4.9457Y-3.2008
X4.9457Y-3.3583
X4.9469Y-3.7894
X4.9488Y-4.5748
X4.9734Y-5.3858
X4.9734Y-5.7402
X5.1102Y-1.4803
X5.1742Y-5.2756
X5.1742Y-5.374
X5.1742Y-5.5276
X5.1742Y-5.8276
X5.2087Y-1.4803
X5.7018Y-5.4764
X5.7805Y-5.4764
X5.9439Y-5.6654
X5.9537Y-5.4764
X6.0325Y-5.4764
X6.0423Y-5.6654
T3
X2.4411Y-3.7746
X2.4411Y-3.8746
X2.4411Y-4.4646
X2.4411Y-4.5646
X2.4421Y-2.3937
X2.4421Y-2.4937
X2.4421Y-3.0837
X2.4421Y-3.1837
X2.4431Y-1.7047
X2.4431Y-1.8047
X2.5807Y-5.4626
X2.5807Y-5.561
X2.6791Y-5.4626
X2.6791Y-5.561
X2.7776Y-5.4626
X2.7776Y-5.561
T4
X2.363Y-2.0553
X2.363Y-2.2053
X2.363Y-2.3553
X2.363Y-2.5053
X2.363Y-2.6553
X2.363Y-2.8053
X2.363Y-2.9553
X2.363Y-3.1053
X2.363Y-3.2553
X2.363Y-3.4053
X2.563Y-1.9803
X2.563Y-2.1303
X2.563Y-2.2803
X2.563Y-2.4303
X2.563Y-2.5803
X2.563Y-2.7303
X2.563Y-2.8803
X2.563Y-3.0303
X2.563Y-3.1803
X2.563Y-3.3303
X2.563Y-3.4803
X5.7805Y-5.2756
X5.8805Y-5.2756
X5.9805Y-5.2756
X8.4614Y-2.5445
X8.4614Y-2.6445
X8.4614Y-2.7445
X8.4614Y-2.8445
X8.4614Y-2.9445
X8.4614Y-3.0445
X8.4614Y-3.1445
X8.4614Y-3.2445
X8.4614Y-3.3445
X8.4614Y-3.4445
X8.4614Y-3.5445
X8.4614Y-3.6445
X8.4614Y-3.7445
X8.4614Y-3.8445
X8.4614Y-3.9445
X8.4614Y-4.0445
X8.4614Y-4.1445
X8.4614Y-4.2445
X8.4614Y-4.3445
X8.4614Y-4.4445
X8.4614Y-4.5445
X8.4614Y-4.6445
X8.4614Y-4.7445
X8.4614Y-4.8445
X8.4614Y-4.9445
X8.5614Y-2.5445
X8.5614Y-2.6445
X8.5614Y-2.7445
X8.5614Y-2.8445
X8.5614Y-2.9445
X8.5614Y-3.0445
X8.5614Y-3.1445
X8.5614Y-3.2445
X8.5614Y-3.3445
X8.5614Y-3.4445
X8.5614Y-3.5445
X8.5614Y-3.6445
X8.5614Y-3.7445
X8.5614Y-3.8445
X8.5614Y-3.9445
X8.5614Y-4.0445
X8.5614Y-4.1445
X8.5614Y-4.2445
X8.5614Y-4.3445
X8.5614Y-4.4445
X8.5614Y-4.5445
X8.5614Y-4.6445
X8.5614Y-4.7445
X8.5614Y-4.8445
X8.5614Y-4.9445
T5
X2.125Y-4.9331
X2.125Y-5.3425
X2.125Y-5.6831
X2.125Y-6.0925
T6
X2.4547Y-5.5945
X2.9035Y-5.4291
T7
X2.2411Y-3.5746
X2.2411Y-3.9746
X2.2411Y-4.2646
X2.2411Y-4.6646
X2.2421Y-2.1937
X2.2421Y-2.5937
X2.2421Y-2.8837
X2.2421Y-3.2837
X2.2431Y-1.5047
X2.2431Y-1.9047
T4
X2.3317Y-5.1378G85X2.2726Y-5.1378
G05
X2.3317Y-5.8878G85X2.2726Y-5.8878
G05
T6
X2.125Y-5.1614G85X2.125Y-5.1142
G05
X2.125Y-5.9114G85X2.125Y-5.8642
G05
T0
M30
