G04 #@! TF.FileFunction,Profile,NP*
%FSLAX46Y46*%
G04 Gerber Fmt 4.6, Leading zero omitted, Abs format (unit mm)*
G04 Created by KiCad (PCBNEW 4.0.7-e2-6376~61~ubuntu18.04.1) date Thu Nov  5 22:11:01 2020*
%MOMM*%
%LPD*%
G01*
G04 APERTURE LIST*
%ADD10C,0.100000*%
%ADD11C,0.150000*%
G04 APERTURE END LIST*
D10*
D11*
X227825000Y-159900000D02*
X49825000Y-159900000D01*
X227825000Y-30400000D02*
X49825000Y-30400000D01*
X227825000Y-159900000D02*
X227825000Y-30400000D01*
X49825000Y-125350000D02*
X49825000Y-30400000D01*
X49825000Y-133750000D02*
X49825000Y-127250000D01*
X49825000Y-144400000D02*
X49825000Y-135650000D01*
X51875000Y-144400000D02*
X51875000Y-146300000D01*
X49825000Y-144400000D02*
X51875000Y-144400000D01*
X49825000Y-146300000D02*
X51875000Y-146300000D01*
X49825000Y-152800000D02*
X49825000Y-146300000D01*
X49825000Y-154700000D02*
X49825000Y-159900000D01*
X51875000Y-154700000D02*
X49825000Y-154700000D01*
X51875000Y-152800000D02*
X51875000Y-154700000D01*
X49825000Y-152800000D02*
X51875000Y-152800000D01*
X51875000Y-135650000D02*
X49825000Y-135650000D01*
X51875000Y-133750000D02*
X51875000Y-135650000D01*
X49825000Y-133750000D02*
X51875000Y-133750000D01*
X51875000Y-127250000D02*
X49825000Y-127250000D01*
X51875000Y-125350000D02*
X51875000Y-127250000D01*
X49825000Y-125350000D02*
X51875000Y-125350000D01*
X56800000Y-97050000D02*
X56800000Y-93700000D01*
X60150000Y-97050000D02*
X56800000Y-97050000D01*
X60150000Y-93700000D02*
X60150000Y-97050000D01*
X56800000Y-93700000D02*
X60150000Y-93700000D01*
X56775000Y-45100000D02*
X56775000Y-41650000D01*
X60125000Y-45100000D02*
X56775000Y-45100000D01*
X60125000Y-41650000D02*
X60125000Y-45100000D01*
X56775000Y-41650000D02*
X60125000Y-41650000D01*
M02*
