G04 #@! TF.FileFunction,Soldermask,Bot*
%FSLAX46Y46*%
G04 Gerber Fmt 4.6, Leading zero omitted, Abs format (unit mm)*
G04 Created by KiCad (PCBNEW 4.0.7-e2-6376~61~ubuntu18.04.1) date Thu Nov  5 22:11:00 2020*
%MOMM*%
%LPD*%
G01*
G04 APERTURE LIST*
%ADD10C,0.100000*%
%ADD11C,4.000000*%
%ADD12R,2.000000X2.000000*%
%ADD13C,2.000000*%
%ADD14O,2.000000X2.000000*%
%ADD15C,1.400000*%
%ADD16R,1.400000X1.400000*%
%ADD17O,3.900000X3.900000*%
%ADD18R,2.200000X2.200000*%
%ADD19O,2.200000X2.200000*%
%ADD20R,2.900000X2.900000*%
%ADD21C,2.200000*%
%ADD22R,2.100000X2.100000*%
%ADD23O,2.100000X2.100000*%
%ADD24C,1.900000*%
%ADD25C,3.600000*%
%ADD26O,3.800000X2.200000*%
%ADD27O,2.500000X3.800000*%
%ADD28C,2.400000*%
%ADD29C,1.924000*%
G04 APERTURE END LIST*
D10*
D11*
X73500000Y-37850000D03*
X219925000Y-152875000D03*
D12*
X94300000Y-42500000D03*
D13*
X91800000Y-42500000D03*
D12*
X94300000Y-62400000D03*
D13*
X91800000Y-62400000D03*
D12*
X94300000Y-82300000D03*
D13*
X91800000Y-82300000D03*
D12*
X106689000Y-141686000D03*
D13*
X104189000Y-141686000D03*
X87800000Y-42500000D03*
D14*
X87800000Y-50120000D03*
D13*
X105400000Y-42500000D03*
D14*
X97780000Y-42500000D03*
D13*
X125600000Y-37600000D03*
D14*
X117980000Y-37600000D03*
D13*
X108800000Y-43600000D03*
D14*
X108800000Y-51220000D03*
D13*
X112800000Y-43600000D03*
D14*
X112800000Y-51220000D03*
D13*
X118000000Y-45700000D03*
D14*
X125620000Y-45700000D03*
D13*
X118000000Y-41600000D03*
D14*
X125620000Y-41600000D03*
D13*
X87800000Y-62400000D03*
D14*
X87800000Y-70020000D03*
D13*
X105400000Y-62400000D03*
D14*
X97780000Y-62400000D03*
D13*
X125600000Y-57400000D03*
D14*
X117980000Y-57400000D03*
D13*
X108800000Y-63500000D03*
D14*
X108800000Y-71120000D03*
D13*
X112800000Y-63500000D03*
D14*
X112800000Y-71120000D03*
D13*
X118000000Y-65400000D03*
D14*
X125620000Y-65400000D03*
D13*
X118000000Y-61400000D03*
D14*
X125620000Y-61400000D03*
D13*
X87800000Y-82300000D03*
D14*
X87800000Y-89920000D03*
D13*
X105500000Y-82300000D03*
D14*
X97880000Y-82300000D03*
D13*
X125600000Y-77300000D03*
D14*
X117980000Y-77300000D03*
D13*
X108900000Y-83400000D03*
D14*
X108900000Y-91020000D03*
D13*
X112900000Y-83400000D03*
D14*
X112900000Y-91020000D03*
D13*
X118000000Y-85300000D03*
D14*
X125620000Y-85300000D03*
D13*
X118000000Y-81300000D03*
D14*
X125620000Y-81300000D03*
D13*
X87950000Y-102200000D03*
D14*
X87950000Y-109820000D03*
D13*
X105500000Y-102200000D03*
D14*
X97880000Y-102200000D03*
D13*
X125650000Y-96250000D03*
D14*
X118030000Y-96250000D03*
D13*
X108900000Y-103300000D03*
D14*
X108900000Y-110920000D03*
D13*
X112900000Y-103300000D03*
D14*
X112900000Y-110920000D03*
D13*
X87900000Y-122100000D03*
D14*
X87900000Y-129720000D03*
D13*
X105450000Y-122100000D03*
D14*
X97830000Y-122100000D03*
D13*
X125700000Y-116200000D03*
D14*
X118080000Y-116200000D03*
D13*
X108900000Y-123200000D03*
D14*
X108900000Y-130820000D03*
D13*
X112900000Y-123200000D03*
D14*
X112900000Y-130820000D03*
D13*
X117625000Y-141700000D03*
D14*
X110005000Y-141700000D03*
D13*
X120825000Y-134100000D03*
D14*
X120825000Y-141720000D03*
D13*
X120825000Y-144100000D03*
D14*
X120825000Y-151720000D03*
D13*
X131425000Y-140400000D03*
D14*
X131425000Y-148020000D03*
D12*
X94300000Y-102200000D03*
D13*
X92300000Y-102200000D03*
D12*
X94300000Y-122100000D03*
D13*
X92300000Y-122100000D03*
X108800000Y-36300000D03*
X108800000Y-38800000D03*
D12*
X129800000Y-37600000D03*
D13*
X132300000Y-37600000D03*
X108800000Y-56100000D03*
X108800000Y-58600000D03*
X108800000Y-76000000D03*
X108800000Y-78500000D03*
X108800000Y-95900000D03*
X108800000Y-98400000D03*
X108800000Y-115800000D03*
X108800000Y-118300000D03*
D12*
X153225000Y-139100000D03*
D13*
X151225000Y-139100000D03*
D12*
X146825000Y-139100000D03*
D13*
X144825000Y-139100000D03*
X126325000Y-136800000D03*
X123825000Y-136800000D03*
D12*
X131425000Y-134000000D03*
D13*
X131425000Y-136500000D03*
X97425000Y-142700000D03*
X97425000Y-140200000D03*
X100825000Y-142700000D03*
X100825000Y-140200000D03*
X117175000Y-147000000D03*
X117175000Y-144500000D03*
X126325000Y-145800000D03*
X123825000Y-145800000D03*
D15*
X114570000Y-39270000D03*
X113300000Y-40540000D03*
D16*
X113300000Y-38000000D03*
D15*
X114570000Y-59070000D03*
X113300000Y-60340000D03*
D16*
X113300000Y-57800000D03*
D15*
X114670000Y-78970000D03*
X113400000Y-80240000D03*
D16*
X113400000Y-77700000D03*
D15*
X114670000Y-98820000D03*
X113400000Y-100090000D03*
D16*
X113400000Y-97550000D03*
D15*
X114670000Y-118770000D03*
X113400000Y-120040000D03*
D16*
X113400000Y-117500000D03*
D15*
X126095000Y-141270000D03*
X124825000Y-142540000D03*
D16*
X124825000Y-140000000D03*
D12*
X105400000Y-37900000D03*
D14*
X97780000Y-37900000D03*
D12*
X97800000Y-47100000D03*
D14*
X105420000Y-47100000D03*
D12*
X105400000Y-57800000D03*
D14*
X97780000Y-57800000D03*
D12*
X97800000Y-67000000D03*
D14*
X105420000Y-67000000D03*
D12*
X105500000Y-77700000D03*
D14*
X97880000Y-77700000D03*
D12*
X97900000Y-86900000D03*
D14*
X105520000Y-86900000D03*
D12*
X105500000Y-97600000D03*
D14*
X97880000Y-97600000D03*
D12*
X97900000Y-106800000D03*
D14*
X105520000Y-106800000D03*
D12*
X105450000Y-117500000D03*
D14*
X97830000Y-117500000D03*
D12*
X97800000Y-126700000D03*
D14*
X105420000Y-126700000D03*
D12*
X110000000Y-146400000D03*
D14*
X102380000Y-146400000D03*
D17*
X149365000Y-117340000D03*
D18*
X146825000Y-134000000D03*
D19*
X149365000Y-134000000D03*
X151905000Y-134000000D03*
D13*
X150975000Y-143900000D03*
X153475000Y-143900000D03*
D20*
X58473000Y-43350000D03*
X58473000Y-95350000D03*
D21*
X65100000Y-50300000D03*
X65100000Y-54110000D03*
X65100000Y-57920000D03*
X65100000Y-61730000D03*
X65100000Y-65540000D03*
X65100000Y-69350000D03*
X65100000Y-73160000D03*
X65100000Y-76970000D03*
X65100000Y-80780000D03*
X65100000Y-84590000D03*
X65100000Y-88400000D03*
X60020000Y-52205000D03*
X60020000Y-56015000D03*
X60020000Y-59825000D03*
X60020000Y-63635000D03*
X60020000Y-67445000D03*
X60020000Y-71255000D03*
X60020000Y-75065000D03*
X60020000Y-78875000D03*
X60020000Y-82685000D03*
X60020000Y-86495000D03*
D22*
X214920000Y-64630000D03*
D23*
X217460000Y-64630000D03*
X214920000Y-67170000D03*
X217460000Y-67170000D03*
X214920000Y-69710000D03*
X217460000Y-69710000D03*
X214920000Y-72250000D03*
X217460000Y-72250000D03*
X214920000Y-74790000D03*
X217460000Y-74790000D03*
X214920000Y-77330000D03*
X217460000Y-77330000D03*
X214920000Y-79870000D03*
X217460000Y-79870000D03*
X214920000Y-82410000D03*
X217460000Y-82410000D03*
X214920000Y-84950000D03*
X217460000Y-84950000D03*
X214920000Y-87490000D03*
X217460000Y-87490000D03*
X214920000Y-90030000D03*
X217460000Y-90030000D03*
X214920000Y-92570000D03*
X217460000Y-92570000D03*
X214920000Y-95110000D03*
X217460000Y-95110000D03*
X214920000Y-97650000D03*
X217460000Y-97650000D03*
X214920000Y-100190000D03*
X217460000Y-100190000D03*
X214920000Y-102730000D03*
X217460000Y-102730000D03*
X214920000Y-105270000D03*
X217460000Y-105270000D03*
X214920000Y-107810000D03*
X217460000Y-107810000D03*
X214920000Y-110350000D03*
X217460000Y-110350000D03*
X214920000Y-112890000D03*
X217460000Y-112890000D03*
X214920000Y-115430000D03*
X217460000Y-115430000D03*
X214920000Y-117970000D03*
X217460000Y-117970000D03*
X214920000Y-120510000D03*
X217460000Y-120510000D03*
X214920000Y-123050000D03*
X217460000Y-123050000D03*
X214920000Y-125590000D03*
X217460000Y-125590000D03*
D24*
X62030000Y-63340000D03*
D25*
X56950000Y-55720000D03*
X56950000Y-65880000D03*
D24*
X62030000Y-60800000D03*
D13*
X89000000Y-144200000D03*
D14*
X81380000Y-144200000D03*
D13*
X81400000Y-148200000D03*
D14*
X89020000Y-148200000D03*
D13*
X89000000Y-140200000D03*
D14*
X81380000Y-140200000D03*
D24*
X62005000Y-98415000D03*
D25*
X56925000Y-90795000D03*
X56925000Y-100955000D03*
D24*
X62005000Y-95875000D03*
X62030000Y-80865000D03*
D25*
X56950000Y-73245000D03*
X56950000Y-83405000D03*
D24*
X62030000Y-78325000D03*
X62005000Y-115940000D03*
D25*
X56925000Y-108320000D03*
X56925000Y-118480000D03*
D24*
X62005000Y-113400000D03*
X62055000Y-45840000D03*
D25*
X56975000Y-38220000D03*
X56975000Y-48380000D03*
D24*
X62055000Y-43300000D03*
D22*
X50825000Y-126300000D03*
D26*
X58475000Y-130500000D03*
D27*
X53975000Y-130500000D03*
D22*
X50825000Y-134700000D03*
D28*
X53975000Y-135700000D03*
X53975000Y-125300000D03*
D22*
X50825000Y-145350000D03*
D26*
X58475000Y-149550000D03*
D27*
X53975000Y-149550000D03*
D22*
X50825000Y-153750000D03*
D28*
X53975000Y-154750000D03*
X53975000Y-144350000D03*
D29*
X68050000Y-138750000D03*
X68050000Y-141250000D03*
X70550000Y-141250000D03*
X70550000Y-138750000D03*
X65550000Y-138750000D03*
X65550000Y-141250000D03*
D28*
X62350000Y-142100000D03*
X73750000Y-137900000D03*
M02*
